<?xml version="1.0" encoding="utf-8"?>
<!-- Generator: Adobe Illustrator 25.2.0, SVG Export Plug-In . SVG Version: 6.00 Build 0)  -->
<svg version="1.1" id="Layer_1" xmlns="http://www.w3.org/2000/svg" xmlns:xlink="http://www.w3.org/1999/xlink" x="0px" y="0px"
	 viewBox="0 0 504 310.2" style="enable-background:new 0 0 504 310.2;" xml:space="preserve">
<style type="text/css">
	.st0{fill:#FFFFFF;}
	.st1{fill:#0098D1;}
	.st2{fill:#EC008C;}
	.st3{fill:#FFF200;}
</style>
<path class="st0" d="M483.7,167.8c1.2-4.2,1.8-8.8,1.4-13.6c-0.4-4.2-1.5-8.1-3.3-11.5c-1.4-6.2-4.6-11.6-9.3-15.5
	c-0.3-0.3-0.7-0.6-1.1-0.9l0.2-0.5c2-5.7,1.3-12-1.7-17C468.3,96.2,453.6,88,442,93.5c-2.6,1.1-4.1,1.6-4.6,1.5
	c-4.2-1-8.4-0.5-12.1,1c0.2-0.7,0.4-1.4,0.6-2.2c1.2-5.3,0.3-10.6-2.3-14.9c0-0.2-0.1-0.3-0.1-0.5l16-43.5
	c2.1-5.8,1.4-12.1-1.6-17.2c-0.7-4.4-2.9-8.6-6.3-11.8c-6.1-5.5-14.8-6.7-22.2-3.2c-1.4,0.7-3,1.1-3.8,1.3
	c-9.9-2.4-20.2,3.2-23.6,13l-5.5,16.2c-6.5,0.8-12.8,3.4-18.7,7.7c-5.3-3.3-11.9-4.9-19.2-4.3c-3.4,0.3-6.8,1.1-10,2.4
	c-0.8,0-1.5,0-2.3,0.1l-16.8,1.5c-1.4,0.1-2.8,0.4-4.2,0.8c-1.4-0.2-2.8-0.2-4.3-0.1l-13.1,1.1c0.2-4-0.8-7.9-2.9-11.3
	c-0.7-4.4-2.9-8.6-6.3-11.8c-6-5.5-14.8-6.7-22.2-3.2c-1.3,0.6-3.9,1.3-5.3,1.4c-9.8-2.4-19.9,2.9-23.4,12.4L221,48.4
	c-3.1-0.7-6.5-0.9-10-0.6c-0.7,0.1-1.4,0.1-2,0.2c-0.5-3.3-1.5-6.5-3-9.4c-2.9-14.9-18.6-25.5-33.6-24c-7,0.6-13.8,3.7-19.1,8.6
	c-1,1-2,2-2.8,3.2c-3.4-0.5-7.2-1.1-10.9-1.8c-11.9-2.1-25.4-4.5-39.2-3.3c-40.7,3.6-69.2,31-66.3,63.9c0,0.4,0.1,0.9,0.1,1.3
	c0,0.4,0,0.8,0.1,1.2c0.1,1.3,0.3,2.7,0.5,4c-4.3,2.4-8.2,5.7-11.4,9.8c-6.2,7.8-9.2,17.8-8.4,27.5c0,0.5,0.1,0.9,0.1,1.4
	c0,0.3,0,0.7,0.1,1.1c0.6,6.5,2.5,12.5,5.7,17.9c5.4,12.7,16.9,21.9,30.7,25.4c-4.2,9-5.9,18.7-4.8,27.8c0.1,1.8,0.3,3.5,0.6,5.1
	c0.2,1.1,0.5,2.3,0.7,3.4c-7.8,7.8-12,19-10.6,30.6c0.1,2.1,0.4,4.2,0.8,6.1c1,4.4,2.6,8.5,4.8,12.3c8,18.7,28.9,29.4,50.8,25.5
	c7.2-1.3,13.3-3.9,18.6-7.3c11,19.3,32.3,29.4,53.6,25.5c10.7-1.9,20.2-7.3,26.8-15.1c7.4-9,10.4-20.3,8.4-31.9
	c-0.6-3.2-1.6-6.3-3-9.1c-0.3-1.4-0.7-2.7-1.2-4.1c1.4-0.6,2.8-1.3,4.1-2c5,2.2,10.7,3.1,16.7,2.6c6.8-0.6,13.1-2.6,18.7-5.8
	c5.3,2.3,11.3,3.3,17.9,2.7c7-0.6,13.8-3,20-6.8c4.7,2.5,10,3.6,15.6,3.2c3.8-0.3,8.2-1.4,12.8-4.2c4.2,1.7,8.9,2.4,13.8,2
	c6.6-0.6,12.7-2.9,18.4-6.8c5,2.9,11.2,4.2,17.8,3.6c5.8-0.5,11.3-2.5,16.3-5.8c5.6,2.6,12,3.7,19.1,3.1c3.3-0.3,6.5-1,9.7-2
	c4.7,1.3,9.7,0.9,14.3-1.3c1.9-1,3.9-1.6,5.8-1.9c0.1,0,0.1,0,0.2,0c0.9-0.1,3.5-0.1,5.3,0c3.6,0.3,7.1-0.4,10.3-1.9
	c4.1,1.5,8.6,2,13.5,1.6c7.8-0.7,19.1-4.4,28.7-18.4c4.5-6.6,8.1-14.9,10-23C487.1,177.3,486.2,172.1,483.7,167.8z"/>
<g>
	<g>
		<g>
			<path class="st1" d="M155.7,288.7c-7.7,0-15-2.4-21.2-7c-8.3-6.3-13.9-16-16-28.1c-0.2-1.4-0.4-2.7-0.6-4.2
				c-10.2,15.5-20.5,19.2-27.9,20.6c-17.2,3-32.6-6.2-36-21.4c-1.3-5.8-0.1-12.1,3.3-17.1c3-4.5,7.4-7.6,12.6-8.9
				c-3.4-3.7-5.7-8.2-6.7-13.4c-3.5-19.7,12.2-44.5,43.5-50c13.9-2.4,27.5-1,38.4,4.1c12.3,5.7,20.2,15.7,22.4,28.2
				c3.7,20.9-8.6,40.4-28.4,46.3c0.7,3.7,2.6,7.6,5.2,10.2c2.6,2.8,5.6,3.9,8.8,3.5c-0.1-0.3-0.1-0.5-0.2-0.8
				c-0.2-1.8,0.6-3.5,2-4.6c0.6-0.4,3.5-2.5,6.5-3.1c4.5-0.8,9.7,0.1,14,2.4c5.3,2.8,8.7,7.5,9.7,13.1c2.5,14.2-7.4,26.9-23,29.7
				C160.1,288.5,157.9,288.7,155.7,288.7z M126.7,229.6c0.9,1,1.4,2.4,1.3,3.9c-0.7,6.7-0.5,12.9,0.4,18.3
				c1.7,9.6,5.9,17.2,12.2,21.9c5.7,4.2,12.8,5.9,20,4.6c8.7-1.5,16.6-8.2,14.9-18.1c-0.5-2.6-2-4.7-4.6-6.1c-2-1.1-4.4-1.6-6.5-1.5
				c0,0.1,0,0.1,0,0.2c-0.5,4.1-4.2,7.5-8.9,8.3c-6.6,1.2-13-1.1-18.1-6.3c-3.9-4.1-6.8-9.9-7.8-15.5c-0.3-1.6-0.6-3.3-0.6-5.4
				c0-2.4,1.7-4.5,4.1-5c18.9-3.5,27.5-21,24.9-35.9c-2.1-11.8-10.3-17.8-16.8-20.9c-9.1-4.2-20.6-5.4-32.5-3.3
				c-17.1,3-39,18-35.4,38.4c1.6,8.9,10.6,15.4,19.4,13.8c5.2-0.9,9.3-3.3,11.8-6.9c2-2.9,2.8-6.4,2.3-9.5c-0.2-1-0.6-1.8-1-2.4
				c-1.4,2.1-3.8,3.6-6.2,4c-2.9,0.5-5.7-0.4-7.8-2.5c-1.5-1.5-2.5-3.6-2.9-5.9c-0.9-5.3,1.5-11.7,6.4-17.3
				c5.2-5.9,12.6-9.9,20.6-11.3c15.7-2.8,23.9,4,27.4,8.3c0.8,1,1.2,2.3,1.1,3.5c1,0.5,1.8,1.3,2.3,2.3c0.8,1.6,1.4,3.6,1.8,5.9
				C151.5,207.6,139.7,225.3,126.7,229.6z M75.4,231.7c-0.6,0-1.3,0.1-2,0.2c-4.1,0.7-6.4,3.1-7.7,5c-1.8,2.8-2.5,6.3-1.8,9.4
				c2.2,9.9,12.7,15.8,24.5,13.7c11.5-2,20.3-11.2,28.6-29.9c0.6-1.3,1.7-2.3,3.1-2.8c-0.7-1.3-0.8-2.8-0.2-4.1c1.6-4,3-8.1,4.4-12
				c3.1-8.5,5.8-16.2,9.1-22c-5.5,4.7-9.7,12.9-14.1,21.5c-7.2,14.1-14.6,28.8-29.8,31.4c-5.4,1-10.8-2.3-12-7.3c-0.3-1-0.3-2-0.1-3
				C76.8,231.8,76.1,231.7,75.4,231.7z M89.5,231.3c0,0.2-0.1,0.4-0.1,0.6c0.6-0.2,1.2-0.4,1.8-0.7
				C90.7,231.3,90.1,231.3,89.5,231.3z M102.3,190.2c2.8,0,5.7,1,8.1,2.8c1.8,1.3,3.2,3,4.3,4.9c4-7.3,8.5-14,14.6-18.2
				c-3.3-1.2-7.3-1.4-11.9-0.6c-7.9,1.4-12.7,5.7-14.9,8.1c-1,1.1-1.7,2.2-2.4,3.2c0,0,0,0,0.1,0C101,190.3,101.6,190.2,102.3,190.2
				z"/>
			<path class="st1" d="M175.7,231.7c-6.8,0-11-2.8-13.5-5.2c-3.4-3.4-5.4-8.4-6-14.5c-0.8-9,2.8-20.4,9.3-29.7
				c7.4-10.6,17.3-16.9,27.9-17.9c6.8-0.6,11.1,1.8,13.4,3.9c3.3,2.9,5.1,7.2,5.3,12.2c0.1,4.1-0.8,8.2-2.5,11.9
				c1.2,0.8,2,2.2,2.1,3.7l0.1,0.8c0.1,0.7,0,1.3-0.2,2c-6,18.6-19.2,31.4-33.6,32.7C177.2,231.7,176.4,231.7,175.7,231.7z
				 M187,176.4c-13,6-21.8,23.6-20.8,34.7c0.3,3.7,1.4,6.6,3.1,8.3c1.8,1.8,4.3,2.5,7.8,2.2c5-0.4,9.8-3,14-7.1
				c-0.6,0.1-1.2,0.2-1.8,0.3c-4.3,0.4-7.7-0.5-10.2-2.5c-2.4-2-3.9-5-4.2-8.8c-0.2-1.7,0-4.1,0.4-6.5c0.3-1.6,1.4-3,2.8-3.7
				c-0.4-2.5,0.6-4.8,1-5.6C179.9,185.9,182.9,179.7,187,176.4z M185.7,198.4c0.2,0.3,0.6,0.2,1.3,0.2c8.8-0.8,15.4-10.1,15.1-17.7
				c-0.1-1.6-0.4-3.7-1.9-5.1c-1.6-1.4-4.1-1.6-5.9-1.4c-0.1,0-0.1,0-0.2,0c2.5,0.7,4.4,2.9,4.6,5.7
				C199.2,186.4,192.2,197.3,185.7,198.4z M188.1,192.2C188.1,192.2,188.1,192.2,188.1,192.2C188,192.2,188.1,192.2,188.1,192.2
				L188.1,192.2z M183.7,189.8L183.7,189.8L183.7,189.8z"/>
			<path class="st1" d="M177,231.6c-0.9,0-1.8,0-2.8-0.1c-1.8-0.2-3.4-1.3-4.1-2.9s-0.5-3.6,0.5-5l12.2-16.6c0.9-1.2,2.2-1.9,3.6-2
				c0.5,0,1,0,1.4,0c0.1,0,0.2,0,0.4,0c8.5-0.7,18.5-17,24.3-31.8c0-0.1,0.1-0.3,0.2-0.4l0.3-0.6c3.2-7.1,10.3-11.7,18.2-11.5
				c6.2,0.1,9.6,3.1,10.7,4.1l0,0c1.4,1.1,2.2,2.9,2,4.7c-0.3,2-1.8,3.7-3.8,4.2c-0.8,0.2-2.4,0.6-2.4,4.6c0.1,2.3,0.8,4.9,1.7,7.9
				c1.2,4,2.5,8.4,2.6,13.6c0.2,12.8-9.2,27.2-26.7,28.7c-5.2,0.5-10.4-1.2-13.9-4.3c-0.5-0.5-1-1-1.5-1.5
				c-6.4,5.4-13.2,8.5-20.3,9.1C178.7,231.6,177.8,231.6,177,231.6z M189.5,214.8l-3.5,4.8c3.2-1.4,6.3-3.6,9.4-6.5
				C193.5,214,191.5,214.5,189.5,214.8z M201.8,208.7c0.5,0,1.1,0.1,1.6,0.3c1.9,0.7,3.2,2.5,3.3,4.5c0,1.2,0.5,2.1,1.3,2.9
				c1.4,1.3,4,2,6.4,1.8c11.7-1,17.7-10.1,17.6-18.6c-0.1-3.8-1.2-7.4-2.2-10.9c-1-3.4-2-7-2.1-10.6c0,0,0-0.1,0-0.1
				c0-2.8,0.5-5.3,1.5-7.5c-3.7,0.6-6.2,3.2-7.2,5.5c0,0.1-0.1,0.1-0.1,0.2l-0.3,0.5c-0.7,1.9-1.9,4.7-3.4,7.9
				c0.2,0,0.4,0.1,0.6,0.1c2.5,0.6,4.4,2.8,4.6,5.5c0.3,2.4,0.5,4.7,0.6,7.3c0,0.1,0,0.1,0,0.2c0,7.5-5.2,13.8-11.9,14.4
				c-2.4,0.2-4.6-0.5-6.2-1.9c-1.1-1-1.8-2.3-2-3.8C203.3,207.3,202.6,208,201.8,208.7z M241.3,164.2
				C241.3,164.2,241.3,164.2,241.3,164.2S241.3,164.2,241.3,164.2z M241.3,164.2C241.3,164.2,241.3,164.2,241.3,164.2
				C241.3,164.2,241.3,164.2,241.3,164.2z"/>
			<path class="st1" d="M249.5,225.3c-6.8,0-11-2.8-13.5-5.2c-3.4-3.4-5.4-8.4-6-14.5c-0.8-9,2.8-20.4,9.3-29.7
				c7.4-10.6,17.3-16.9,27.9-17.9c6.8-0.6,11.1,1.8,13.4,3.9c3.3,2.9,5.1,7.2,5.3,12.2c0.1,4.1-0.8,8.2-2.5,11.9
				c1.2,0.8,2,2.2,2.1,3.7l0.1,0.8c0.1,0.7,0,1.3-0.2,2c-6,18.6-19.2,31.4-33.6,32.7C251,225.2,250.3,225.3,249.5,225.3z M260.8,170
				c-4.9,2.3-9.5,6.3-13.3,11.6c-5.1,7.3-8.1,16.3-7.5,23c0.3,3.7,1.4,6.6,3.1,8.3c1.8,1.8,4.3,2.5,7.8,2.2c5-0.4,9.8-3,14-7.1
				c-0.6,0.1-1.2,0.2-1.8,0.3c-4.2,0.4-7.7-0.5-10.2-2.5c-2.4-2-3.9-5-4.2-8.8c-0.2-1.7,0-4.1,0.4-6.5c0.3-1.6,1.4-3,2.8-3.7
				c-0.4-2.5,0.6-4.8,1-5.6C253.8,179.5,256.8,173.3,260.8,170z M259.5,192c0.2,0.3,0.6,0.2,1.3,0.2c8.8-0.8,15.4-10.1,15.1-17.7
				c-0.1-1.6-0.4-3.7-1.9-5.1c-1.6-1.4-4.1-1.6-5.9-1.4c-0.1,0-0.1,0-0.2,0c0.8,0.2,1.5,0.6,2.2,1.1c1.4,1.1,2.3,2.7,2.4,4.5
				C273.1,180,266,190.8,259.5,192z M261.9,185.7C261.9,185.7,261.9,185.8,261.9,185.7C261.9,185.8,261.9,185.7,261.9,185.7
				L261.9,185.7z M257.5,183.4L257.5,183.4L257.5,183.4z M267.5,177.4L267.5,177.4z"/>
			<path class="st1" d="M286.2,221.6c-3.7,0-7.1-1.5-9.8-4.4c-2.5-2.7-4.1-6.5-4.5-10.5c-1.8-20.1,15.5-50.4,34-52
				c3.6-0.3,6.2,0.7,8,1.9c0.8-0.8,1.9-1.2,3-1.3l16.3-1.4c1.5-0.1,3.1,0.5,4.1,1.6c0.4-1.8,0.6-3.6,0.8-5.3
				c0.2-2.4,2.1-4.3,4.5-4.5l10.9-1c1.8-0.2,3.5,0.6,4.5,2.1c0.7,1,1,2.3,0.9,3.5c8.9-0.6,14.8,4.2,15.6,12.6
				c0.5,5.9-1.9,12-4.4,17.4c0.8-0.1,1.5,0,2.3,0.2c2.4,0.8,3.8,3.4,3.2,5.9c-0.7,3-2.9,10.7-7.8,18c-4.9,7.2-11,11.4-17.6,11.9
				c-5.9,0.5-9.5-1.6-11.4-3.5c-2-1.9-3.2-4.5-3.8-7.6c-5.3,7.4-12.2,13.5-21,14.3c-4.5,0.4-8.5-1-11.5-3.9c-0.7-0.7-1.4-1.5-2-2.4
				c-3.9,5.2-8.4,8.1-13.2,8.5C287,221.5,286.6,221.6,286.2,221.6z M307.4,164.6c-0.1,0-0.3,0-0.5,0c-11.6,1-26.3,25.2-24.9,41.1
				c0.2,1.8,0.8,3.5,1.9,4.6c1.2,1.3,2.3,1.2,2.7,1.2c3.1-0.3,6.6-4.2,9.7-10.6c-1.8-0.9-3.2-2.8-3.5-5.9c-0.5-5.5,3-14.1,4.1-16.6
				c5.4-12.4,9.6-12.8,11.2-12.9c0.3,0,0.6,0,1,0c-0.1-0.3-0.3-0.5-0.4-0.6C308.4,164.7,307.9,164.6,307.4,164.6z M306.5,196.1
				c0.7,0.9,1.1,2.1,1,3.4c-0.3,3.8,0.5,7.3,2.1,8.8c0.5,0.5,1.5,1.2,3.5,1c4.3-0.4,8.1-3.2,11.5-7.2c-0.5,0.1-0.9,0.2-1.3,0.2
				c-2.3,0.2-4.4-0.7-5.8-2.5c-2.2-3-1.8-7.4,1.3-15.4l7.4-20.1l-5,0.4l-1.4,4.8c-0.6,2-2.3,3.4-4.3,3.5l-0.5,0c-0.2,0-0.3,0-0.5,0
				c-0.1,1.7-0.5,3.7-1.1,6.3c-0.7,2.6-1.8,6.1-2.7,7.8C309.1,191.1,307.8,194,306.5,196.1z M347.8,165.3c3.4,0,6.1,2.5,6.4,5.9
				c0.3,3-1.3,6.3-3.6,11.4c-2.7,5.9-6.4,13.9-5.9,19.6c0.1,1.5,0.5,2.7,1.1,3.2c0.8,0.8,2.4,0.8,3.6,0.7c4-0.3,7.5-3.6,10.4-7.9
				c-2.2-1-3.7-3.2-3.9-5.9c-0.4-4.4,1.9-9.2,4.2-14.3c2.3-4.9,4.8-10.4,4.5-14.4c-0.2-2.1-0.7-3.9-5.2-3.5c-2.2,0.2-4,1.3-5.8,3.4
				c-0.9,1-2.1,1.7-3.4,1.8l-1.1,0.1c-1.3,0.1-2.7-0.3-3.7-1.2c-0.1,0.5-0.3,0.9-0.4,1.4c0.1,0,0.3,0,0.4-0.1l1.6-0.1
				C347.4,165.3,347.6,165.3,347.8,165.3z M310.3,175.1L310.3,175.1z M308.5,170.5L308.5,170.5L308.5,170.5z"/>
			<path class="st1" d="M383.2,213.6c-6.9,0-11.2-2.7-13.7-5.1c-3.5-3.4-5.7-8.5-6.2-14.5c-0.7-8.4,2.8-19.6,9.3-29.1
				c7.2-10.6,16.6-17.3,25.8-18.4c5.9-0.7,11.4,0.7,15.4,3.9c3.6,2.9,5.7,7,6.1,11.8c0.3,3.8-0.6,8.1-2.7,12.2
				c1.2,0.8,2,2.2,2.1,3.7l0.1,0.8c0.1,0.7,0,1.3-0.2,2c-6,18.6-19.2,31.4-33.6,32.7C384.8,213.5,384,213.6,383.2,213.6z
				 M393.9,158.1c-11.5,5.8-21.6,23.6-20.6,34.9c0.3,3.7,1.4,6.5,3.2,8.2c1.9,1.8,4.6,2.6,8.2,2.2c5-0.4,9.8-3,14-7.1
				c-0.6,0.1-1.2,0.2-1.8,0.3c-8,0.7-12.8-2.7-14-9.9c-1.4-8.5,4.2-20.3,8.6-25.9C392.4,159.8,393.1,158.9,393.9,158.1z
				 M405.1,156.8c0.3,0.3,0.5,0.6,0.7,0.9c0.7,1.2,1,2.4,1.1,3.1c0.4,4.1-2.7,11.9-7.2,17.1c2.2-0.4,4.8-2.3,6.9-5.3
				c2.2-3.2,3.5-6.9,3.3-9.7c-0.2-2.1-1-3.8-2.4-4.9C406.8,157.5,406,157.1,405.1,156.8z M399,151.4L399,151.4L399,151.4z"/>
			<path class="st1" d="M402,212.1c-1.3,0-2.6-0.5-3.5-1.4c-1.5-1.5-1.9-3.8-1-5.7c7-14.5,26.2-68.7,32-85.8
				c0.8-2.4,3.4-3.8,5.9-3.3c4.7,1.1,8.6,0,14.1-2.4c1.8-0.8,4-0.5,5.4,0.9c1.5,1.4,2,3.5,1.3,5.3l-8.2,23.1c1.6-0.5,3.2-0.8,4.9-1
				c4.7-0.4,8.5,0.6,11.4,3c2.7,2.2,4.3,5.5,4.6,9.5c0.5,5.9-1.9,12-4.4,17.4c0.8-0.1,1.5,0,2.3,0.2c2.4,0.8,3.8,3.4,3.2,5.9
				c-0.7,3-2.9,10.7-7.8,18c-4.9,7.2-11,11.4-17.6,11.9c-7,0.6-12.2-2.4-14.4-8.1l-1.7,5c-0.7,2.2-2.9,3.5-5.1,3.4
				c-1.4-0.1-5.8-0.3-8.7,0.1c-3.5,0.5-7,1.6-10.4,3.3C403.5,212,402.7,212.1,402,212.1z M437.6,126.3
				c-5.8,16.7-18.5,52.5-26.6,72.5c0.7-0.1,1.4-0.3,2.1-0.4c2.3-0.4,4.9-0.4,7.1-0.4l5.7-16.5c3.1-9.3,5.8-15.1,8.1-18.6
				c-0.9-0.4-1.7-1-2.2-1.8c-1-1.5-1.1-3.5-0.3-5.1l4.1-7.9l7.8-22.1C441.5,126.3,439.6,126.4,437.6,126.3z M444.1,157.4
				c2.4,0.7,4.2,2.9,4.4,5.6c0.3,3.3-1.4,7-3.8,12.2c-2.7,5.9-6.1,13.2-5.6,18.8c0.3,3.3,1.3,4.2,4.7,3.9c4-0.3,7.5-3.6,10.4-7.9
				c-2.2-1-3.7-3.2-3.9-5.9c-0.4-4.4,1.9-9.2,4.2-14.3c2.3-4.9,4.8-10.4,4.5-14.4c-0.1-0.9-0.3-2.1-1.1-2.8
				c-0.7-0.6-2.2-0.9-4.1-0.7C450.1,152.2,446.6,154.2,444.1,157.4z M430.6,183.1L430.6,183.1L430.6,183.1z"/>
		</g>
		<g>
			<path class="st2" d="M153.3,283.8c-7.7,0-15-2.4-21.2-7c-8.3-6.3-13.9-16-16-28.1c-0.2-1.4-0.4-2.7-0.6-4.2
				c-10.2,15.5-20.5,19.2-27.9,20.6c-17.2,3-32.6-6.2-36-21.4c-1.3-5.8-0.1-12.1,3.3-17.1c3-4.5,7.4-7.6,12.6-8.9
				c-3.4-3.7-5.7-8.2-6.7-13.4c-3.5-19.7,12.2-44.5,43.5-50c13.9-2.4,27.5-1,38.4,4.1c12.3,5.7,20.2,15.7,22.4,28.2
				c3.7,20.9-8.6,40.4-28.4,46.3c0.7,3.7,2.6,7.6,5.2,10.2c2.6,2.8,5.6,3.9,8.8,3.5c-0.1-0.3-0.1-0.5-0.2-0.8
				c-0.2-1.8,0.6-3.5,2-4.6c0.6-0.4,3.5-2.5,6.5-3.1c4.5-0.8,9.7,0.1,14,2.4c5.3,2.8,8.7,7.5,9.7,13.1c2.5,14.2-7.4,26.9-23,29.7
				C157.7,283.7,155.5,283.8,153.3,283.8z M124.3,224.8c0.9,1,1.4,2.4,1.3,3.9c-0.7,6.7-0.5,12.9,0.4,18.3
				c1.7,9.6,5.9,17.2,12.2,21.9c5.7,4.2,12.8,5.9,20,4.6c8.7-1.5,16.6-8.2,14.9-18.1c-0.5-2.6-2-4.7-4.6-6.1c-2-1.1-4.4-1.6-6.5-1.5
				c0,0.1,0,0.1,0,0.2c-0.5,4.1-4.2,7.5-8.9,8.3c-6.6,1.2-13-1.1-18.1-6.3c-3.9-4.1-6.8-9.9-7.8-15.5c-0.3-1.6-0.6-3.3-0.6-5.4
				c0-2.4,1.7-4.5,4.1-5c18.9-3.5,27.5-21,24.9-35.9c-2.1-11.8-10.3-17.8-16.8-20.9c-9.1-4.2-20.6-5.4-32.5-3.3
				c-17.1,3-39,18-35.4,38.4c1.6,8.9,10.6,15.4,19.4,13.8c5.2-0.9,9.3-3.3,11.8-6.9c2-2.9,2.8-6.4,2.3-9.5c-0.2-1-0.6-1.8-1-2.4
				c-1.4,2.1-3.8,3.6-6.2,4c-2.9,0.5-5.7-0.4-7.8-2.5c-1.5-1.5-2.5-3.6-2.9-5.9c-0.9-5.3,1.5-11.7,6.4-17.3
				c5.2-5.9,12.6-9.9,20.6-11.3c15.7-2.8,23.9,4,27.4,8.3c0.8,1,1.2,2.3,1.1,3.5c1,0.5,1.8,1.3,2.3,2.3c0.8,1.6,1.4,3.6,1.8,5.9
				C149.1,202.8,137.3,220.5,124.3,224.8z M73,226.9c-0.6,0-1.3,0.1-2,0.2c-4.1,0.7-6.4,3.1-7.7,5c-1.8,2.8-2.5,6.3-1.8,9.4
				c2.2,9.9,12.7,15.8,24.5,13.7c11.5-2,20.3-11.2,28.6-29.9c0.6-1.3,1.7-2.3,3.1-2.8c-0.7-1.3-0.8-2.8-0.2-4.1c1.6-4,3-8.1,4.4-12
				c3.1-8.5,5.8-16.2,9.1-22c-5.5,4.7-9.7,12.9-14.1,21.5c-7.2,14.1-14.6,28.8-29.8,31.4c-5.4,1-10.8-2.3-12-7.3c-0.3-1-0.3-2-0.1-3
				C74.3,227,73.7,226.9,73,226.9z M87.1,226.5c0,0.2-0.1,0.4-0.1,0.6c0.6-0.2,1.2-0.4,1.8-0.7C88.2,226.5,87.7,226.5,87.1,226.5z
				 M99.9,185.4c2.8,0,5.7,1,8.1,2.8c1.8,1.3,3.2,3,4.3,4.9c4-7.3,8.5-14,14.6-18.2c-3.3-1.2-7.3-1.4-11.9-0.6
				c-7.9,1.4-12.7,5.7-14.9,8.1c-1,1.1-1.7,2.2-2.4,3.2c0,0,0,0,0.1,0C98.5,185.5,99.2,185.4,99.9,185.4z"/>
			<path class="st2" d="M173.2,226.9c-6.8,0-11-2.8-13.5-5.2c-3.4-3.4-5.4-8.4-6-14.5c-0.8-9,2.8-20.4,9.3-29.7
				c7.4-10.6,17.3-16.9,27.9-17.9c6.8-0.6,11.1,1.8,13.4,3.9c3.3,2.9,5.1,7.2,5.3,12.2c0.1,4.1-0.8,8.2-2.5,11.9
				c1.2,0.8,2,2.2,2.1,3.7l0.1,0.8c0.1,0.7,0,1.3-0.2,2c-6,18.6-19.2,31.4-33.6,32.7C174.7,226.9,174,226.9,173.2,226.9z
				 M184.5,171.6c-13,6-21.8,23.6-20.8,34.7c0.3,3.7,1.4,6.6,3.1,8.3c1.8,1.8,4.3,2.5,7.8,2.2c5-0.4,9.8-3,14-7.1
				c-0.6,0.1-1.2,0.2-1.8,0.3c-4.3,0.4-7.7-0.5-10.2-2.5c-2.4-2-3.9-5-4.2-8.8c-0.2-1.7,0-4.1,0.4-6.5c0.3-1.6,1.4-3,2.8-3.7
				c-0.4-2.5,0.6-4.8,1-5.6C177.5,181.1,180.5,174.9,184.5,171.6z M183.2,193.6c0.2,0.3,0.6,0.2,1.3,0.2
				c8.8-0.8,15.4-10.1,15.1-17.7c-0.1-1.6-0.4-3.7-1.9-5.1c-1.6-1.4-4.1-1.6-5.9-1.4c-0.1,0-0.1,0-0.2,0c2.5,0.7,4.4,2.9,4.6,5.7
				C196.8,181.6,189.7,192.5,183.2,193.6z M185.6,187.4C185.6,187.4,185.6,187.4,185.6,187.4C185.6,187.4,185.6,187.4,185.6,187.4
				L185.6,187.4z M181.2,185L181.2,185L181.2,185z"/>
			<path class="st2" d="M174.6,226.8c-0.9,0-1.8,0-2.8-0.1c-1.8-0.2-3.4-1.3-4.1-2.9s-0.5-3.6,0.5-5l12.2-16.6
				c0.9-1.2,2.2-1.9,3.6-2c0.5,0,1,0,1.4,0c0.1,0,0.2,0,0.4,0c8.5-0.7,18.5-17,24.3-31.8c0-0.1,0.1-0.3,0.2-0.4l0.3-0.6
				c3.2-7.1,10.3-11.6,18.2-11.5c6.2,0.1,9.6,3.1,10.7,4.1l0,0c1.4,1.1,2.2,2.9,2,4.7c-0.3,2-1.8,3.7-3.8,4.2
				c-0.8,0.2-2.4,0.6-2.4,4.6c0.1,2.3,0.8,4.9,1.7,7.9c1.2,4,2.5,8.4,2.6,13.6c0.2,12.8-9.2,27.2-26.7,28.7
				c-5.2,0.5-10.4-1.2-13.9-4.3c-0.5-0.5-1-1-1.5-1.5c-6.4,5.4-13.2,8.5-20.3,9.1C176.3,226.8,175.4,226.8,174.6,226.8z M187.1,210
				l-3.5,4.8c3.2-1.4,6.3-3.6,9.4-6.5C191,209.1,189.1,209.7,187.1,210z M199.4,203.9c0.5,0,1.1,0.1,1.6,0.3
				c1.9,0.7,3.2,2.5,3.3,4.5c0,1.2,0.5,2.1,1.3,2.9c1.4,1.3,4,2,6.4,1.8c11.7-1,17.7-10.1,17.6-18.6c-0.1-3.8-1.2-7.4-2.2-10.9
				c-1-3.4-2-7-2.1-10.6c0,0,0-0.1,0-0.1c0-2.8,0.5-5.3,1.5-7.5c-3.7,0.6-6.2,3.2-7.2,5.5c0,0.1-0.1,0.1-0.1,0.2l-0.3,0.5
				c-0.7,1.9-1.9,4.7-3.4,7.9c0.2,0,0.4,0.1,0.6,0.1c2.5,0.6,4.4,2.8,4.6,5.5c0.3,2.4,0.5,4.7,0.6,7.3c0,0.1,0,0.1,0,0.2
				c0,7.5-5.2,13.8-11.9,14.4c-2.4,0.2-4.6-0.5-6.2-1.9c-1.1-1-1.8-2.3-2-3.8C200.9,202.5,200.2,203.2,199.4,203.9z M238.9,159.4
				C238.9,159.4,238.9,159.4,238.9,159.4S238.9,159.4,238.9,159.4z M238.9,159.4C238.9,159.4,238.9,159.4,238.9,159.4
				C238.9,159.4,238.9,159.4,238.9,159.4z"/>
			<path class="st2" d="M247.1,220.5c-6.8,0-11-2.8-13.5-5.2c-3.4-3.4-5.4-8.4-6-14.5c-0.8-9,2.8-20.4,9.3-29.7
				c7.4-10.6,17.3-16.9,27.9-17.9c6.8-0.6,11.1,1.8,13.4,3.9c3.3,2.9,5.1,7.2,5.3,12.2c0.1,4.1-0.8,8.2-2.5,11.9
				c1.2,0.8,2,2.2,2.1,3.7l0.1,0.8c0.1,0.7,0,1.3-0.2,2c-6,18.6-19.2,31.4-33.6,32.7C248.6,220.4,247.8,220.5,247.1,220.5z
				 M258.3,165.2c-4.9,2.3-9.5,6.3-13.3,11.6c-5.1,7.3-8.1,16.3-7.5,23c0.3,3.7,1.4,6.6,3.1,8.3c1.8,1.8,4.3,2.5,7.8,2.2
				c5-0.4,9.8-3,14-7.1c-0.6,0.1-1.2,0.2-1.8,0.3c-4.2,0.4-7.7-0.5-10.2-2.5c-2.4-2-3.9-5-4.2-8.8c-0.2-1.7,0-4.1,0.4-6.5
				c0.3-1.6,1.4-3,2.8-3.7c-0.4-2.5,0.6-4.8,1-5.6C251.4,174.7,254.3,168.5,258.3,165.2z M257.1,187.2c0.2,0.3,0.6,0.2,1.3,0.2
				c8.8-0.8,15.4-10.1,15.1-17.7c-0.1-1.6-0.4-3.7-1.9-5.1c-1.6-1.4-4.1-1.6-5.9-1.4c-0.1,0-0.1,0-0.2,0c0.8,0.2,1.5,0.6,2.2,1.1
				c1.4,1.1,2.3,2.7,2.4,4.5C270.6,175.2,263.6,186,257.1,187.2z M259.5,180.9C259.5,180.9,259.5,180.9,259.5,180.9
				C259.5,180.9,259.5,180.9,259.5,180.9L259.5,180.9z M255.1,178.6L255.1,178.6L255.1,178.6z M265,172.6L265,172.6z"/>
			<path class="st2" d="M283.8,216.8c-3.7,0-7.1-1.5-9.8-4.4c-2.5-2.7-4.1-6.5-4.5-10.5c-0.8-9.3,2.6-21.7,9-32.3
				c7.1-11.7,16.2-18.9,25-19.7c3.6-0.3,6.2,0.7,8,1.9c0.8-0.8,1.9-1.2,3-1.3l16.3-1.4c1.5-0.1,3.1,0.5,4.1,1.6
				c0.4-1.8,0.6-3.6,0.8-5.3c0.2-2.4,2.1-4.3,4.5-4.5l10.9-1c1.8-0.2,3.5,0.6,4.5,2.1c0.7,1,1,2.3,0.9,3.5
				c8.9-0.6,14.8,4.2,15.6,12.6c0.5,5.9-1.9,12-4.4,17.4c0.8-0.1,1.5,0,2.3,0.2c2.4,0.8,3.8,3.4,3.2,5.9c-0.7,3-2.9,10.7-7.8,18
				c-4.9,7.2-11,11.4-17.6,11.9c-5.9,0.5-9.5-1.6-11.4-3.5c-2-1.9-3.2-4.5-3.8-7.6c-5.3,7.4-12.2,13.5-21,14.3
				c-4.5,0.4-8.5-1-11.5-3.9c-0.7-0.7-1.4-1.5-2-2.4c-3.9,5.2-8.4,8.1-13.2,8.5C284.6,216.7,284.2,216.8,283.8,216.8z M304.9,159.8
				c-0.1,0-0.3,0-0.5,0c-5.4,0.5-12.1,6.2-17.3,14.9c-5.3,8.7-8.3,19-7.6,26.3c0.2,1.8,0.8,3.5,1.9,4.6c1.2,1.3,2.3,1.2,2.7,1.2
				c3.1-0.3,6.6-4.2,9.7-10.6c-1.8-0.9-3.2-2.8-3.5-5.9c-0.5-5.5,3-14.1,4.1-16.6c5.4-12.4,9.6-12.8,11.2-12.9c0.3,0,0.6,0,1,0
				c-0.1-0.3-0.3-0.5-0.4-0.6C305.9,159.9,305.5,159.8,304.9,159.8z M304.1,191.3c0.7,0.9,1.1,2.1,1,3.4c-0.3,3.8,0.5,7.3,2.1,8.8
				c0.5,0.5,1.5,1.2,3.5,1c4.3-0.4,8.1-3.2,11.5-7.2c-0.5,0.1-0.9,0.2-1.3,0.2c-2.3,0.2-4.4-0.7-5.8-2.5c-2.2-3-1.8-7.4,1.3-15.4
				l7.4-20.1l-5,0.4l-1.4,4.8c-0.6,2-2.3,3.4-4.3,3.5l-0.5,0c-0.2,0-0.3,0-0.5,0c-0.1,1.7-0.5,3.7-1.1,6.3c-0.7,2.6-1.8,6.1-2.7,7.8
				C306.7,186.3,305.4,189.1,304.1,191.3z M345.4,160.5c3.4,0,6.1,2.5,6.4,5.9c0.3,3-1.3,6.3-3.6,11.4c-2.7,5.9-6.4,13.9-5.9,19.6
				c0.1,1.5,0.5,2.7,1.1,3.2c0.8,0.8,2.4,0.8,3.6,0.7c4-0.3,7.5-3.6,10.4-7.9c-2.2-1-3.7-3.2-3.9-5.9c-0.4-4.4,1.9-9.2,4.2-14.3
				c2.3-4.9,4.8-10.4,4.5-14.4c-0.2-2.1-0.7-3.9-5.2-3.5c-2.2,0.2-4,1.3-5.8,3.4c-0.9,1-2.1,1.7-3.4,1.8l-1.1,0.1
				c-1.3,0.1-2.7-0.3-3.7-1.2c-0.1,0.5-0.3,0.9-0.4,1.4c0.1,0,0.3,0,0.4-0.1l1.6-0.1C344.9,160.5,345.2,160.5,345.4,160.5z
				 M307.9,170.3L307.9,170.3z M306.1,165.7L306.1,165.7L306.1,165.7z"/>
			<path class="st2" d="M380.8,208.8c-6.9,0-11.2-2.7-13.7-5.1c-3.5-3.4-5.7-8.5-6.2-14.5c-0.7-8.4,2.8-19.6,9.3-29.1
				c7.2-10.6,16.6-17.3,25.8-18.4c5.9-0.7,11.4,0.7,15.4,3.9c3.6,2.9,5.7,7,6.1,11.8c0.3,3.8-0.6,8.1-2.7,12.2
				c1.2,0.8,2,2.2,2.1,3.7l0.1,0.8c0.1,0.7,0,1.3-0.2,2c-6,18.6-19.2,31.4-33.6,32.7C382.4,208.7,381.5,208.8,380.8,208.8z
				 M391.5,153.3c-11.5,5.8-21.6,23.6-20.6,34.9c0.3,3.7,1.4,6.5,3.2,8.2c1.9,1.8,4.6,2.6,8.2,2.2c5-0.4,9.8-3,14-7.1
				c-0.6,0.1-1.2,0.2-1.8,0.3c-8,0.7-12.8-2.7-14-9.9c-1.4-8.5,4.2-20.3,8.6-25.9C389.9,154.9,390.7,154.1,391.5,153.3z M402.7,152
				c0.3,0.3,0.5,0.6,0.7,0.9c0.7,1.2,1,2.4,1.1,3.1c0.4,4.1-2.7,11.9-7.2,17.1c2.2-0.4,4.8-2.3,6.9-5.3c2.2-3.2,3.5-6.9,3.3-9.7
				c-0.2-2.1-1-3.8-2.4-4.9C404.4,152.7,403.6,152.3,402.7,152z M396.6,146.6L396.6,146.6L396.6,146.6z"/>
			<path class="st2" d="M399.6,207.3c-1.3,0-2.6-0.5-3.5-1.4c-1.5-1.5-1.9-3.8-1-5.7c7-14.5,26.2-68.7,32-85.8
				c0.8-2.4,3.4-3.8,5.9-3.3c4.7,1.1,8.6,0,14.1-2.4c1.8-0.8,4-0.5,5.4,0.9c1.5,1.4,2,3.5,1.3,5.3l-8.2,23.1c1.6-0.5,3.2-0.8,4.9-1
				c4.7-0.4,8.5,0.6,11.4,3c2.7,2.2,4.3,5.5,4.6,9.5c0.5,5.9-1.9,12-4.4,17.4c0.8-0.1,1.5,0,2.3,0.2c2.4,0.8,3.8,3.4,3.2,5.9
				c-0.7,3-2.9,10.7-7.8,18c-4.9,7.2-11,11.4-17.6,11.9c-7,0.6-12.2-2.4-14.4-8.1l-1.7,5c-0.7,2.2-2.9,3.5-5.1,3.4
				c-1.4-0.1-5.8-0.3-8.7,0.1c-3.5,0.5-7,1.6-10.4,3.3C401.1,207.2,400.3,207.3,399.6,207.3z M435.2,121.5
				c-5.8,16.7-18.5,52.5-26.6,72.5c0.7-0.1,1.4-0.3,2.1-0.4c2.3-0.4,4.9-0.4,7.1-0.4l5.7-16.5c3.1-9.3,5.8-15.1,8.1-18.6
				c-0.9-0.4-1.7-1-2.2-1.8c-1-1.5-1.1-3.5-0.3-5.1l4.1-7.9l7.8-22.1C439.1,121.5,437.2,121.6,435.2,121.5z M441.6,152.6
				c2.4,0.7,4.2,2.9,4.4,5.6c0.3,3.3-1.4,7-3.8,12.2c-2.7,5.9-6.1,13.2-5.6,18.8c0.3,3.3,1.3,4.2,4.7,3.9c4-0.3,7.5-3.6,10.4-7.9
				c-2.2-1-3.7-3.2-3.9-5.9c-0.4-4.4,1.9-9.2,4.2-14.3c2.3-4.9,4.8-10.4,4.5-14.4c-0.1-0.9-0.3-2.1-1.1-2.8
				c-0.7-0.6-2.2-0.9-4.1-0.7C447.6,147.4,444.2,149.4,441.6,152.6z M428.2,178.3L428.2,178.3L428.2,178.3z"/>
		</g>
		<g>
			<path class="st3" d="M136.6,173.4c-4.4-5.4-12-8.4-22.6-6.5c-15.4,2.7-24.2,15.6-22.9,22.8c0.4,2.5,2.1,4.8,4.9,4.3
				c1.9-0.3,3.9-2.1,3.5-4.3c-0.1-0.7-0.5-1.1-0.8-1.6c4-0.7,9.3,2.5,10.4,8.4c1.4,8.1-3.6,19.7-18.1,22.2
				c-11,1.9-23.1-5.8-25.2-17.9c-2.8-15.7,9.6-38.9,39.4-44.2c25.2-4.4,51,4.8,55.1,28.2c3.3,18.5-8.1,37.8-28.9,41.7
				c0,1.6,0.3,3.1,0.5,4.6c1.5,8.8,9.1,19.8,20.1,17.8c4.6-0.8,6.2-5.1,3.6-6.2c1-0.7,3-1.9,4.4-2.1c6.4-1.1,16.3,2.3,17.9,11.5
				c2.1,12.1-6.7,21.7-18.9,23.9c-17.1,3-33.9-7.6-38-30.5c-1-5.7-1.2-12.2-0.5-19.6c-0.6-0.2-1-0.5-1.5-0.8
				c-7.1,15.9-16.5,30-32.3,32.8c-13.7,2.4-27.3-4.5-30.2-17.5c-1.9-8.7,3.4-18.7,13.5-20.5c4.9-0.9,9.8,0.5,12,3.8
				c-1.6,0.3-2.6,1.6-2.2,3c0.6,2.5,3.6,4,6.2,3.6C110.9,225.6,113,178.5,136.6,173.4z M139.4,178.2c-6.5,6.5-11.1,23-17.5,39.5
				c10.3-2.9,21.8-18.2,18.9-34.8C140.5,181.3,140,179.6,139.4,178.2z"/>
			<path class="st3" d="M204.1,190.1c-5.6,17.5-17.4,28.2-29.2,29.2c-10.5,0.9-15.5-5.7-16.3-15.1c-1.4-15.8,12.8-40.4,32.6-42.1
				c8.3-0.7,13.1,4,13.3,11.3c0.4,10.4-8.2,21.8-19.7,22.8c-4.3,0.4-6.5-1.9-7.1-5.7c-0.4,2.1-0.5,4-0.4,5.2c0.4,4.7,2.9,7.3,9,6.8
				c4.7-0.4,13.2-5.3,17.8-13.2L204.1,190.1z M181,182.5c-0.5,0.9-1.4,3.9,1,3.7c3.4-0.3,9.4-8.5,9-13c-0.1-0.9-0.8-1.4-1.6-1.3
				C187.5,172.1,183.7,176.5,181,182.5z"/>
			<path class="st3" d="M184.2,202.6c0.5,0,1.1,0,1.8,0c13.2-1.2,24.3-24.2,28.5-35l0.3-0.7c2-4.6,7-8.7,13.6-8.6
				c5.2,0.1,7.4,2.9,7.9,3.1c-4.4,1.1-6.2,4.7-6.2,9.5c0.1,6.3,4.1,13.2,4.3,21.5c0.1,10.8-7.8,22.3-22.2,23.6
				c-5.8,0.5-12.9-2.5-13.2-9.5c-6.3,6.9-13.8,12-22.6,12.8c-1.6,0.1-3,0.1-4.5,0L184.2,202.6z M215.9,183.7l0-0.1
				c-0.1-1.1-1.1-1.7-1.9-0.2c-2.1,4.1-4.4,8.5-7.3,12.8c-0.3,0.8-0.4,1.5-0.4,1.9c0,1.4,1.3,2.1,2.9,1.9c4.2-0.4,7.3-4.7,7.3-9.4
				C216.4,188.1,216.2,186,215.9,183.7z"/>
			<path class="st3" d="M278,183.7c-5.6,17.5-17.4,28.2-29.2,29.2c-10.5,0.9-15.5-5.7-16.3-15.1c-1.4-15.8,12.8-40.4,32.6-42.1
				c8.3-0.7,13.1,4,13.3,11.3c0.4,10.4-8.2,21.8-19.7,22.8c-4.3,0.4-6.5-1.9-7.1-5.7c-0.4,2.1-0.5,4-0.4,5.2c0.4,4.7,2.9,7.3,9,6.8
				c4.7-0.4,13.2-5.3,17.8-13.2L278,183.7z M254.9,176.1c-0.5,0.9-1.4,3.9,1,3.7c3.4-0.3,9.4-8.5,9-13c-0.1-0.9-0.8-1.4-1.6-1.3
				C261.4,165.6,257.6,170,254.9,176.1z"/>
			<path class="st3" d="M351.4,142.2c-0.5,1-3.4,6-5.3,10.9l1.1-0.1c2.3-2.8,5.3-4.8,9.2-5.1c7-0.6,10.1,2.9,10.6,8
				c0.9,9.8-9.3,22.1-8.7,28.8c0.1,1.2,0.9,2.1,2.1,2c3.4-0.3,5.5-3.7,7.9-8.8c-2.3,9.7-9.6,25.1-21,26.1c-7,0.6-9.6-3.4-10.1-8.5
				c-1-11.4,9.8-26.7,9.5-31c-0.1-0.7-0.4-1.5-1.6-1.3l-1.6,0.1l-3.7,9.1c-4.2,10.5-13.5,33.4-28.8,34.7
				c-8.5,0.7-11.7-7.2-11.1-15.3c-3.6,8.8-8.8,16.9-15.5,17.5c-5.4,0.5-9.5-4.5-10-10.4c-1.5-17.3,13.9-45.2,29.5-46.6
				c6-0.5,8.1,4.3,8.1,8.6l0.5,0l2.4-8.1l16.3-1.4L320.9,179c-1.6,3.9-4.1,11.5-0.6,11.2c5.2-0.5,18.7-29.4,20.3-47L351.4,142.2z
				 M305.9,163.2c-4.8,0.4-14.7,26.6-9.2,26.1c1.9-0.2,4.6-6,6.8-11.4C304.5,176.1,308.8,163,305.9,163.2z"/>
			<path class="st3" d="M396.4,144.1c8.3-1,15.2,3.1,15.9,11.2c0.7,8.2-6.9,19.7-15.1,20.4c-4.8,0.4-8.6-2.4-8.9-4.8
				c5.1-0.7,11.5-12.5,11.1-16.9c0-0.4-0.3-1.5-1.3-1.4c-5,0.4-14.1,17.2-12.6,26c0.6,3.6,2.2,6.3,8.6,5.7
				c4.7-0.4,13.2-5.4,17.8-13.2l0.1,0.8c-5.6,17.5-17.4,28.2-29.2,29.2c-10.7,0.9-16.1-5.6-16.9-15
				C364.4,171.2,379.2,146.1,396.4,144.1z"/>
			<path class="st3" d="M428,175.8l-6.9,20.1c0,0-5.7-0.4-9.9,0.2c-4.8,0.7-8.9,2.3-11.9,3.7c7.2-15,26.8-70.6,32.2-86.3
				c6.4,1.5,11.5-0.2,17.2-2.7l-11.3,32l-4.3,8.2l1.7-0.2l0.8-1.4c3.4-5.7,8.9-9.3,14.8-9.8c7-0.6,10.1,2.9,10.6,8
				c0.9,9.8-9.3,22.1-8.7,28.8c0.1,1.2,0.9,2.1,2.1,2c3.4-0.3,5.5-3.7,7.9-8.8c-2.3,9.7-9.6,25.1-21,26.1c-7,0.6-9.6-3.4-10.1-8.5
				c-1-11.4,9.9-26,9.5-31c-0.1-0.7-0.4-1.5-1.6-1.3C435.1,155.2,429.3,171.6,428,175.8z"/>
		</g>
	</g>
	<g>
		<g>
			<path class="st1" d="M63.1,160.5c-7.3,0-14.2-2.1-19.8-6c-7-4.9-11.3-12.1-12-20.5c-0.5-5.9,1.4-12.1,5.2-16.9
				c4.1-5.1,9.9-8.3,16.4-8.9c2.9-0.3,5.6,0,8.1,0.7c-0.3-0.2-0.6-0.4-0.9-0.6c-5.7-4.4-9.1-10.8-9.8-18.1
				C48.2,65.9,70.9,45.4,103,42.6c11.8-1,24.2,1.2,35.2,3.1c9.2,1.6,17.9,3.2,24.7,2.6c0.5,0,1-0.1,1.4-0.2c0,0-0.1-0.1-0.1-0.1
				c-1.4-1.6-1.7-3.9-0.7-5.7l0.2-0.4c0.3-0.5,0.6-0.9,1-1.3c2.9-2.7,6.5-4.3,10.3-4.7c8-0.7,17.1,4.8,17.9,14.1
				c1.1,12.6-8.7,21.6-25.1,23c-9.6,0.8-21.2-2.7-32.5-6.2l0,0c-1.2,1.2-2.9,3.6-4.9,8.6c-1.6,4-3.1,8.4-4.6,12.6
				c-0.5,1.5-1.1,3-1.6,4.5l0.1,0c1.7-0.2,3.4,0.6,4.4,1.9c1,1.4,1.3,3.2,0.7,4.8l-4,11c-0.7,1.8-2.3,3.1-4.3,3.3l-5.7,0.5
				c-10,22-23.8,44-49,46.2C65.4,160.4,64.2,160.5,63.1,160.5z M55,118.2c-0.4,0-0.8,0-1.3,0.1c-3.7,0.3-7.1,2.1-9.4,5.1
				c-2.2,2.8-3.4,6.4-3.1,9.8c0.6,6.8,4.5,10.9,7.7,13.1c4.5,3.1,10.6,4.6,16.6,4.1c21.1-1.8,33-22.8,41.9-43c0.7-1.7,2.3-2.8,4.1-3
				l5.4-0.5l0.2-0.7l-0.1,0c-1.7,0.1-3.4-0.6-4.4-2c-1-1.4-1.3-3.2-0.6-4.8c1.4-3.6,2.8-7.5,4.2-11.7c1.5-4.3,3-8.7,4.7-12.9
				c0.7-1.8,1.5-3.5,2.2-5c-2.5,2-5,5.2-6.9,9l-0.5,1.2c0,0.1,0,0.1-0.1,0.2l-1.4,3c-3.6,7.5-7.4,15.2-11.3,22.2
				c-0.7,1.2-1.9,2.1-3.2,2.5l-2,5.8c-0.1,0.4-0.4,0.8-0.6,1.2c-8.3,12-17.3,18.2-27.6,19.1c-6.2,0.5-11-3-11.4-8.5
				c-0.1-1.2,0.1-2.4,0.5-3.5C57.7,118.4,56.4,118.2,55,118.2z M67.4,112.3c1.4,1.2,2.5,2.5,3.3,4.1c0.7,1.3,0.8,2.8,0.3,4.1
				c4.4-0.9,8.6-3.4,12.6-7.6c-1.7,0.5-3.4,0.8-5.2,0.9C74.7,114.1,70.9,113.6,67.4,112.3z M96.8,53.5
				c-22.6,4.3-37.9,18.9-36.5,35.8c0.5,5.7,3.5,9.2,5.9,11.1c3.2,2.5,7.3,3.7,11.3,3.4c6.4-0.6,10.3-3.8,12.4-6.4
				c2.7-3.3,3.5-6.9,3.4-8.4c-0.1-1.6-0.7-2.9-1.6-3.7c-0.1-0.1-0.1-0.1-0.2-0.2c-0.4,3.7-3.4,6.5-7.5,6.9c-4,0.4-8.5-2.5-9.4-9.7
				c0,0,0-0.1,0-0.1c-0.6-6.1,1.6-12.7,6.1-18.1C83.6,60.5,88.7,56.2,96.8,53.5z M89.4,74.4c3.3,0,6.5,1.2,9,3.6
				c1.5,1.4,2.7,3.1,3.5,4.9c1.2-2.4,2.4-4.9,3.5-7.3l1.9-4.1c0-0.1,0.1-0.1,0.1-0.2c1.1-2.2,3.4-6.3,6.9-9.9
				c-2.1-0.2-4.1-0.3-5.9-0.1c-11.2,1-17.1,5.5-20.1,9.2c-1.2,1.4-2.1,2.9-2.7,4.4c0.9-0.3,1.7-0.4,2.6-0.5
				C88.6,74.4,89,74.4,89.4,74.4z M111.4,74.9L111.4,74.9L111.4,74.9z M134.4,56.4c0.5,0,1,0.1,1.5,0.2l2.4,0.7
				c10.3,3.2,21,6.5,28.6,5.8c5.1-0.4,16.8-2.5,16-12.2c-0.3-3.3-4-5.1-6.7-5.1c0,0,0,0.1,0,0.1c0.4,2.5-0.4,5.2-2.1,7.4
				c-1.6,2-4.7,4.5-10.3,5c-8,0.7-17.4-1-27.3-2.7c-3.6-0.6-7.3-1.3-11-1.8c1.2,0.4,4.2,1.3,5.1,4.1c0.5-0.4,1.1-0.7,1.7-1
				C133,56.5,133.7,56.4,134.4,56.4z"/>
			<path class="st1" d="M128.9,141.5c-7.5,0-13.2-5.5-13.9-13.6c-0.7-8.2,4.2-23.8,15-47.6c0.7-1.6,2.3-2.8,4.1-2.9l17.3-1.5
				c1.2-0.1,2.4,0.2,3.3,0.9c0.8-0.8,1.9-1.4,3.1-1.5l18.3-1.6c1.7-0.1,3.4,0.6,4.4,1.9c1,1.4,1.3,3.2,0.7,4.8l-8.5,23.3
				c0.9-0.2,1.9-0.2,2.9,0.2c2.4,0.9,3.8,3.5,3.1,6l-0.6,2.2c0,0,0,0.1,0,0.1c-5.3,17.2-13.2,26.3-23.4,27.2
				c-5.5,0.5-8.9-1.6-10.8-3.5c-0.5-0.5-1-1.1-1.4-1.7c-3.7,4.4-7.8,6.9-12.3,7.2C129.8,141.5,129.3,141.5,128.9,141.5z M137.9,87.1
				c-12.4,27.8-13.2,37.2-13,40c0.2,1.8,1,4.8,4.4,4.5c3-0.3,6.5-4.1,9.6-10.3c-1.2-0.5-1.9-1.2-2.3-1.6c-2.7-3.1-1.8-7.5,1-14.9
				l6.8-18.2L137.9,87.1z M148.4,117.4c0.9,1,1.3,2.3,1.2,3.7c-0.4,4.4,0.5,6.9,1.3,7.7c0.2,0.2,0.8,0.8,2.8,0.6
				c3.3-0.3,6.5-2.9,9.4-7.7c-0.9-0.4-1.6-0.9-2.3-1.6c-1.5-1.6-2.2-3.8-1.9-6.1c0.2-2.5,1.3-5.5,2.8-9.6l7.4-20.2l-7.3,0.6l-7,18.6
				l-1.7,4.3C151.4,112.4,149.8,115.4,148.4,117.4z M167.1,104.7L167.1,104.7L167.1,104.7z"/>
			<path class="st1" d="M162.3,139.3c-1.3,0-2.6-0.5-3.5-1.4c-1.5-1.5-1.9-3.8-1-5.7c7.2-14.8,17.2-40.5,22.4-55.8
				c0.6-1.9,2.3-3.2,4.3-3.4l16.8-1.5c1-0.1,2.1,0.1,2.9,0.7c2.9-1.7,6-2.8,9.3-3.1c9.1-0.8,15.2,4,16,12.6c0.5,5.9-1.9,12-4.4,17.4
				c0.8-0.1,1.5,0,2.3,0.2c2.4,0.8,3.8,3.4,3.2,5.9c-0.7,3-2.9,10.7-7.8,18c-4.9,7.2-11,11.4-17.6,11.9c0,0,0,0,0,0
				c-6,0.5-9.5-1.6-11.4-3.5c-1.5-1.4-2.5-3.2-3.2-5.3l-2,5.8c-0.8,2.1-2.9,3.5-5.1,3.3c-1.4-0.1-5.7-0.3-8.6,0.1
				c-3.5,0.5-7,1.6-10.4,3.3C163.9,139.1,163.1,139.3,162.3,139.3z M204.9,130.1L204.9,130.1L204.9,130.1z M188.7,82.6
				c-4.4,12.5-11,29.6-17,43.3c0.6-0.1,1.2-0.2,1.8-0.3c2.3-0.3,4.9-0.4,6.9-0.4l6.1-17.6c3.3-9,5.9-14.6,8.3-18.1
				c-0.5-0.3-1-0.8-1.4-1.3c-1-1.5-1.2-3.4-0.4-5l0.5-1L188.7,82.6z M205.1,84.6c2.3,0.8,3.9,2.9,4.1,5.5c0.3,3.3-1.4,7-3.8,12.2
				c-2.7,5.9-6.1,13.2-5.6,18.8c0.1,1.5,0.5,2.7,1.1,3.2c0.8,0.8,2.4,0.8,3.6,0.7c4-0.3,7.5-3.6,10.4-7.9c-2.2-1-3.7-3.2-3.9-5.9
				c-0.4-4.4,1.9-9.2,4.2-14.3c2.3-4.9,4.8-10.4,4.5-14.4c-0.2-2.1-0.7-3.9-5.2-3.5C211,79.3,207.7,81.3,205.1,84.6z"/>
			<path class="st1" d="M243,154.1c-6.6,0-12.9-2.5-17.9-7.2c-5.3-4.9-8.7-11.9-9.3-19.1c-0.8-9.4,2.6-19.6,5.9-28.4l21.6-57.8
				c0.9-2.5,3.6-3.8,6.2-3c3.4,1.1,10.7-0.5,15-2.6c1.8-0.9,4-0.6,5.5,0.8c1.5,1.4,2,3.5,1.3,5.4L249,102.7
				c-2.8,7.6-3.4,14-3.2,16.4c0.1,0.6,0.6,5.6,2.8,5.8c0.2-0.8,0.6-1.6,1.2-2.2c1-1.2,2.6-1.8,4.1-1.6c5.7,0.5,10.3,5.7,10.9,12.2
				c0.4,4.9-1.2,9.9-4.5,13.6c-3.6,4.1-8.7,6.5-14.9,7C244.5,154.1,243.7,154.1,243,154.1z M251.2,48.9l-20.2,54
				c-2.9,7.8-5.9,16.7-5.3,24c0.4,4.8,2.7,9.4,6.1,12.7c3.5,3.3,8,4.9,12.5,4.5c7.7-0.7,10.7-5.6,10.4-9.8c0-0.3-0.1-0.6-0.2-0.9
				c-1.9,1.2-3.9,1.5-4.9,1.6c-7.6,0.7-13.1-5.2-13.9-14.9c-0.4-4.1,0.7-12.1,3.8-20.7c0,0,0,0,0,0l18.8-51
				C256,48.7,253.5,49,251.2,48.9z"/>
			<path class="st1" d="M256.4,130.4c-7.6,0-13.3-6-14.1-15c-1.8-20.1,15.5-50.4,34-52c3.6-0.3,6.2,0.7,8,1.9c0.8-0.8,1.9-1.2,3-1.3
				l16.3-1.4c1.7-0.1,3.4,0.6,4.4,1.9c1,1.4,1.3,3.2,0.7,4.8l-8.6,23.3c0.9-0.3,2-0.3,3,0.1c2.4,0.8,3.8,3.3,3.3,5.7l-0.5,2.3
				c0,0.2-0.1,0.3-0.1,0.5c-6.6,21.3-16.5,26.5-23.7,27.1c-5.2,0.5-8.5-1.6-10.3-3.4c-0.6-0.6-1.2-1.3-1.7-2.1
				c-3.7,4.6-7.9,7.1-12.5,7.5C257.2,130.4,256.8,130.4,256.4,130.4z M277.7,73.4c-0.1,0-0.3,0-0.5,0c-11.6,1-26.3,25.2-24.9,41.1
				c0.2,1.9,0.9,6.1,4.6,5.8c3.1-0.3,6.7-4.3,9.7-10.6c-0.8-0.5-1.6-1.1-2.2-1.9c-3.7-5.3,1.2-17.2,3.5-22.1
				c4.5-9.7,8-11.2,10.6-11.4l0,0c0.3,0,0.6,0,1,0c-0.1-0.3-0.3-0.5-0.4-0.6C278.6,73.5,278.2,73.4,277.7,73.4z M276.7,105.1
				c0.7,1,1,2.2,0.9,3.4c-0.5,5.4,0.4,8.4,1.3,9.3c0.2,0.2,0.7,0.7,2.3,0.5c3.9-0.3,7.1-3.6,9.6-7.6c-1.1-0.4-2.1-1.2-2.9-2.2
				c-3-4-0.7-10.2,1.2-15.1l0-0.1l7.4-20.1l-5,0.4l-1.4,4.8c-0.6,2-2.3,3.4-4.4,3.5l-0.5,0c-0.2,0-0.3,0-0.5,0
				c-0.1,2.9-1.1,7.2-3.7,13.8C279.4,99.9,278,102.9,276.7,105.1z M293.8,95.1L293.8,95.1L293.8,95.1z M278.8,79.3L278.8,79.3
				L278.8,79.3z"/>
			<path class="st1" d="M289.8,128.2c-1.3,0-2.6-0.5-3.5-1.4c-1.5-1.5-1.9-3.8-1-5.7c7.2-14.8,17.2-40.5,22.5-55.8
				c0.6-1.9,2.3-3.2,4.3-3.4l16.8-1.5c1-0.1,2.1,0.1,2.9,0.7c2.9-1.7,6-2.8,9.3-3.1c9.1-0.8,15.2,4,16,12.6c0.5,5.9-1.9,12-4.4,17.4
				c0.8-0.1,1.5,0,2.3,0.2c2.4,0.8,3.8,3.4,3.2,5.9c-0.7,3-2.9,10.7-7.8,18c-4.9,7.2-11,11.4-17.6,11.9l0,0
				c-5.9,0.5-9.5-1.6-11.4-3.5c-1.5-1.4-2.5-3.2-3.2-5.3l-2,5.8c-0.8,2.2-2.9,3.5-5.1,3.3c-1.4-0.1-5.7-0.3-8.6,0.1
				c-3.5,0.5-7,1.6-10.4,3.3C291.3,128,290.6,128.2,289.8,128.2z M316.1,71.5c-4.4,12.5-11,29.6-17,43.3c0.6-0.1,1.2-0.2,1.8-0.3
				c2.3-0.3,4.9-0.4,6.9-0.4l6.1-17.6c3.3-9,5.9-14.6,8.3-18.1c-0.5-0.3-1-0.8-1.4-1.3c-1-1.5-1.2-3.4-0.4-5l0.5-1L316.1,71.5z
				 M332.6,73.5c2.3,0.8,3.9,2.9,4.1,5.5c0.3,3.3-1.4,7-3.8,12.2c-2.7,5.9-6.1,13.2-5.6,18.8c0.1,1.5,0.5,2.7,1.1,3.2
				c0.8,0.8,2.4,0.8,3.6,0.7l0,0c4-0.3,7.5-3.6,10.4-7.9c-0.7-0.3-1.3-0.8-1.9-1.3c-1.2-1.2-1.9-2.8-2-4.6
				c-0.4-4.4,1.9-9.2,4.2-14.3c2.3-4.9,4.8-10.4,4.5-14.4c-0.2-2.1-0.7-3.9-5.2-3.5C338.5,68.2,335.2,70.2,332.6,73.5z M331.6,82.7
				L331.6,82.7L331.6,82.7z"/>
			<path class="st1" d="M360.2,121.3c-3.7,0-7.1-1.5-9.8-4.4c-2.5-2.7-4.1-6.5-4.5-10.5c-0.8-9.3,2.6-21.7,9-32.3
				c7.1-11.7,16.2-18.9,25-19.7c3.1-0.3,5.7,0.2,7.9,1.5l9.5-27.7c0.9-2.6,3.6-4,6.2-3.2c3.6,1.1,9.5-0.5,13.5-2.4
				c1.8-0.9,4-0.6,5.5,0.8c1.5,1.4,2,3.5,1.3,5.4l-20.1,54.6c0.9-0.2,1.8-0.2,2.8,0.1c2.4,0.8,3.8,3.4,3.2,5.9
				c-0.7,3-2.8,10.7-7.4,17.8c-4.7,7.3-10.5,11.4-16.7,12c-5.6,0.5-9-1.7-10.8-3.6c-0.5-0.5-1-1.1-1.4-1.8c-3.7,4.5-7.8,7-12.3,7.4
				C361,121.3,360.6,121.3,360.2,121.3z M381.5,64.3c-0.2,0-0.4,0-0.7,0c-5.4,0.5-12.1,6.2-17.3,14.9c-5.3,8.7-8.3,19-7.6,26.3
				c0.2,1.8,0.8,3.5,1.9,4.6c1.2,1.3,2.3,1.2,2.7,1.2c3.1-0.3,6.6-4.2,9.7-10.6c-0.8-0.5-1.6-1.1-2.2-1.9c-1.2-1.8-3.4-7.4,3.5-22.1
				c4.5-9.7,8-11.2,10.6-11.4c0.4,0,0.7,0,1.1,0c-0.2-0.6-0.4-0.8-0.4-0.8C382.7,64.4,382.3,64.3,381.5,64.3z M380.5,95.8
				c0.8,1,1.1,2.3,0.9,3.7c-0.7,5.4,0,8.3,0.9,9.2c0.5,0.5,1.3,0.7,2.7,0.5c3.4-0.3,6.7-3.4,9.4-7.7c-0.9-0.4-1.6-0.9-2.3-1.6
				c-1.5-1.6-2.2-3.8-1.9-6.1c0.2-2.5,1.3-5.5,2.8-9.6l0.6-1.5c0,0,0,0,0,0L411.1,35c-1.8,0.3-3.7,0.5-5.6,0.4l-11.4,33.2
				c-0.6,1.9-2.3,3.2-4.3,3.4l-0.9,0.1c-0.1,0-0.1,0-0.2,0c0,2.6-0.8,6-2.6,11.2c0,0.1-0.1,0.2-0.1,0.2l-1.9,4.8
				C382.8,91.5,381.6,94,380.5,95.8z M395.1,94.3L395.1,94.3L395.1,94.3z M381.3,81.6L381.3,81.6L381.3,81.6z"/>
		</g>
		<g>
			<path class="st2" d="M60.7,155.6c-7.3,0-14.2-2.1-19.8-6c-7-4.9-11.3-12.1-12-20.5c-0.5-5.9,1.4-12.1,5.2-16.9
				c4.1-5.1,9.9-8.3,16.4-8.9c2.9-0.3,5.6,0,8.1,0.7c-0.3-0.2-0.6-0.4-0.9-0.6c-5.7-4.4-9.1-10.8-9.8-18.1
				c-2.1-24.4,20.5-44.8,52.7-47.7c11.8-1,24.2,1.2,35.2,3.1c9.2,1.6,17.9,3.2,24.7,2.6c0.5,0,1-0.1,1.4-0.2c0,0-0.1-0.1-0.1-0.1
				c-1.4-1.6-1.7-3.9-0.7-5.7l0.2-0.4c0.3-0.5,0.6-0.9,1-1.3c2.9-2.7,6.5-4.3,10.3-4.7c8-0.7,17.1,4.8,17.9,14.1
				c1.1,12.6-8.7,21.6-25.1,23c-9.6,0.8-21.2-2.7-32.5-6.2l0,0c-1.2,1.2-2.9,3.6-4.9,8.6c-1.6,4-3.1,8.4-4.6,12.6
				c-0.5,1.5-1.1,3-1.6,4.5l0.1,0c1.7-0.2,3.4,0.6,4.4,1.9c1,1.4,1.3,3.2,0.7,4.8l-4,11c-0.7,1.8-2.3,3.1-4.3,3.3l-5.7,0.5
				c-10,22-23.7,44-49,46.2C62.9,155.6,61.8,155.6,60.7,155.6z M52.6,113.4c-0.4,0-0.8,0-1.3,0.1c-3.7,0.3-7.1,2.1-9.4,5.1
				c-2.2,2.8-3.4,6.4-3.1,9.8c0.6,6.8,4.5,10.9,7.7,13.1c4.5,3.1,10.6,4.6,16.6,4.1c21.1-1.8,33-22.8,41.9-43c0.7-1.7,2.3-2.8,4.1-3
				l5.4-0.5l0.2-0.7l-0.1,0c-1.7,0.1-3.4-0.6-4.4-2c-1-1.4-1.3-3.2-0.6-4.8c1.4-3.6,2.8-7.5,4.2-11.7c1.5-4.3,3-8.7,4.7-12.9
				c0.7-1.8,1.5-3.5,2.2-5c-2.5,2-5,5.2-6.9,9l-0.5,1.2c0,0.1,0,0.1-0.1,0.2l-1.4,3c-3.6,7.4-7.4,15.2-11.2,22.2
				c-0.7,1.2-1.9,2.1-3.2,2.5l-2,5.8c-0.1,0.4-0.4,0.8-0.6,1.2c-8.3,12-17.3,18.2-27.6,19.1c-6.2,0.5-11-3-11.4-8.5
				c-0.1-1.2,0.1-2.4,0.5-3.5C55.3,113.6,54,113.4,52.6,113.4z M64.9,107.5c1.4,1.2,2.5,2.5,3.3,4.1c0.7,1.3,0.8,2.8,0.3,4.1
				c4.4-0.9,8.6-3.4,12.6-7.6c-1.7,0.5-3.4,0.8-5.2,0.9C72.3,109.3,68.5,108.8,64.9,107.5z M94.3,48.7C71.7,53,56.4,67.6,57.9,84.6
				c0.5,5.7,3.5,9.2,5.9,11.1c3.2,2.5,7.3,3.7,11.3,3.4c6.4-0.6,10.3-3.8,12.4-6.4c2.7-3.3,3.5-6.9,3.4-8.4
				c-0.1-1.6-0.7-2.9-1.6-3.7c-0.1-0.1-0.1-0.1-0.2-0.2c-0.4,3.7-3.4,6.5-7.5,6.9c-4,0.3-8.5-2.5-9.4-9.7c0,0,0-0.1,0-0.1
				c-0.6-6.1,1.6-12.7,6.1-18.1C81.2,55.7,86.3,51.3,94.3,48.7z M87,69.6c3.3,0,6.5,1.2,9,3.6c1.5,1.4,2.7,3.1,3.5,4.9
				c1.2-2.4,2.4-4.9,3.5-7.3l1.9-4.1c0-0.1,0.1-0.1,0.1-0.2c1.1-2.2,3.4-6.3,6.9-9.9c-2.1-0.2-4.1-0.3-5.9-0.1
				c-11.2,1-17.1,5.5-20.1,9.2c-1.2,1.4-2.1,2.9-2.7,4.4c0.9-0.3,1.7-0.4,2.6-0.5C86.2,69.6,86.6,69.6,87,69.6z M109,70.1L109,70.1
				L109,70.1z M132,51.6c0.5,0,1,0.1,1.5,0.2l2.4,0.7c10.3,3.2,21,6.5,28.7,5.8c5.1-0.4,16.8-2.5,16-12.2c-0.3-3.3-4-5.1-6.7-5.1
				c0,0,0,0.1,0,0.1c0.4,2.5-0.4,5.2-2.1,7.4c-1.6,2-4.7,4.5-10.3,5c-8,0.7-17.4-1-27.3-2.7c-3.6-0.6-7.3-1.3-11-1.8
				c1.2,0.4,4.2,1.3,5.1,4.1c0.5-0.4,1.1-0.7,1.7-1C130.5,51.7,131.3,51.6,132,51.6z"/>
			<path class="st2" d="M126.4,136.7c-7.5,0-13.2-5.5-13.9-13.6c-0.7-8.2,4.2-23.8,15-47.6c0.7-1.6,2.3-2.8,4.1-2.9L149,71
				c1.2-0.1,2.4,0.2,3.3,0.9c0.8-0.8,1.9-1.4,3.1-1.5l18.3-1.6c1.7-0.1,3.4,0.6,4.4,1.9c1,1.4,1.3,3.2,0.7,4.8l-8.5,23.3
				c0.9-0.2,1.9-0.2,2.9,0.2c2.4,0.9,3.8,3.5,3.1,6l-0.6,2.2c0,0,0,0.1,0,0.1c-5.3,17.2-13.2,26.3-23.4,27.2
				c-5.5,0.5-8.9-1.6-10.8-3.5c-0.5-0.5-1-1.1-1.4-1.7c-3.7,4.4-7.8,6.9-12.3,7.2C127.3,136.7,126.9,136.7,126.4,136.7z M135.4,82.3
				c-12.4,27.8-13.2,37.2-13,40c0.2,1.8,1,4.8,4.4,4.5c3-0.3,6.5-4.1,9.6-10.3c-1.2-0.5-1.9-1.2-2.3-1.6c-2.7-3.1-1.8-7.5,1-14.9
				l6.8-18.2L135.4,82.3z M146,112.6c0.9,1,1.3,2.3,1.2,3.7c-0.4,4.4,0.5,6.9,1.3,7.7c0.2,0.2,0.8,0.8,2.8,0.6
				c3.3-0.3,6.5-2.9,9.4-7.7c-0.9-0.4-1.6-0.9-2.3-1.6c-1.5-1.6-2.2-3.8-1.9-6.1c0.2-2.5,1.3-5.5,2.8-9.6l7.4-20.2l-7.3,0.6l-7,18.6
				l-1.7,4.3C149,107.6,147.4,110.6,146,112.6z M164.6,99.9L164.6,99.9L164.6,99.9z"/>
			<path class="st2" d="M159.9,134.5c-1.3,0-2.6-0.5-3.5-1.4c-1.5-1.5-1.9-3.8-1-5.7c7.2-14.8,17.2-40.5,22.4-55.8
				c0.6-1.9,2.3-3.2,4.3-3.4l16.8-1.5c1-0.1,2.1,0.1,2.9,0.7c2.9-1.7,6-2.8,9.3-3.1c9.1-0.8,15.2,4,16,12.6c0.5,5.9-1.9,12-4.4,17.4
				c0.8-0.1,1.5,0,2.3,0.2c2.4,0.8,3.8,3.4,3.2,5.9c-0.7,3-2.9,10.7-7.8,18c-4.9,7.2-11,11.4-17.6,11.9l0,0
				c-5.9,0.5-9.5-1.6-11.4-3.5c-1.5-1.4-2.5-3.2-3.2-5.3l-2,5.8c-0.8,2.1-2.9,3.5-5.1,3.3c-1.4-0.1-5.7-0.3-8.6,0.1
				c-3.5,0.5-7,1.6-10.4,3.3C161.4,134.3,160.7,134.5,159.9,134.5z M186.2,77.8c-4.4,12.5-11,29.6-17,43.3c0.6-0.1,1.2-0.2,1.8-0.3
				c2.3-0.3,4.9-0.4,6.9-0.4l6.1-17.6c3.3-9,5.9-14.6,8.3-18.1c-0.5-0.3-1-0.8-1.4-1.3c-1-1.5-1.2-3.4-0.4-5l0.5-1L186.2,77.8z
				 M202.7,79.8c2.3,0.8,3.9,2.9,4.1,5.5c0.3,3.3-1.4,7-3.8,12.2c-2.7,5.9-6.1,13.2-5.6,18.8c0.1,1.5,0.5,2.7,1.1,3.2
				c0.8,0.8,2.4,0.8,3.6,0.7l0,0c4-0.3,7.5-3.6,10.4-7.9c-2.2-1-3.7-3.2-3.9-5.9c-0.4-4.4,1.9-9.2,4.2-14.3
				c2.3-4.9,4.8-10.4,4.5-14.4c-0.2-2.1-0.7-3.9-5.2-3.5C208.6,74.5,205.3,76.5,202.7,79.8z"/>
			<path class="st2" d="M240.6,149.3c-14,0-26-11.4-27.3-26.4c-0.8-9.4,2.6-19.6,5.9-28.4l21.6-57.8c0.9-2.5,3.6-3.8,6.2-3
				c3.4,1.1,10.7-0.5,15-2.6c1.8-0.9,4-0.6,5.5,0.8c1.5,1.4,2,3.5,1.3,5.4l-22.3,60.5c-2.8,7.6-3.4,14-3.2,16.4
				c0.2,2.1,0.7,3.9,1.5,5c0.4,0.6,0.8,0.8,1.3,0.8c0.2-0.8,0.6-1.6,1.2-2.3c1-1.2,2.6-1.8,4.1-1.6c5.7,0.5,10.3,5.7,10.9,12.2
				c0.4,4.9-1.2,9.9-4.5,13.6c-3.6,4-8.7,6.5-14.9,7C242.1,149.3,241.3,149.3,240.6,149.3z M248.7,44.1l-20.2,54
				c-2.9,7.8-5.9,16.7-5.3,24c0.8,9,8.5,18.1,18.7,17.2c7.7-0.7,10.7-5.6,10.4-9.8c0-0.3-0.1-0.6-0.2-0.9c-1.9,1.2-3.9,1.5-4.9,1.6
				c-7.6,0.7-13-5.2-13.9-14.9c-0.4-4.1,0.7-12.1,3.8-20.7c0,0,0,0,0,0l18.8-51C253.6,43.9,251.1,44.2,248.7,44.1z"/>
			<path class="st2" d="M253.9,125.6c-7.6,0-13.3-6-14.1-15c-1.8-20.1,15.5-50.4,34-52c3.6-0.3,6.2,0.7,8,1.9c0.8-0.8,1.9-1.2,3-1.3
				l16.3-1.4c1.7-0.1,3.4,0.6,4.4,1.9s1.3,3.2,0.7,4.8l-8.6,23.3c0.9-0.3,2-0.3,3,0.1c2.4,0.8,3.8,3.3,3.3,5.7l-0.5,2.3
				c0,0.2-0.1,0.3-0.1,0.5c-6.6,21.3-16.5,26.5-23.7,27.1c-5.2,0.5-8.5-1.6-10.3-3.4c-0.6-0.6-1.2-1.3-1.7-2.1
				c-3.7,4.6-7.9,7.1-12.5,7.5C254.8,125.5,254.4,125.6,253.9,125.6z M275.2,68.6c-0.1,0-0.3,0-0.5,0c-11.6,1-26.3,25.2-24.9,41.1
				c0.2,1.9,0.9,6.1,4.6,5.8c3.1-0.3,6.7-4.3,9.7-10.6c-0.8-0.5-1.6-1.1-2.2-1.9c-3.7-5.3,1.2-17.2,3.5-22.1
				c4.5-9.7,8-11.2,10.6-11.4c0.3,0,0.6,0,1,0c-0.1-0.3-0.3-0.5-0.4-0.6C276.2,68.7,275.8,68.6,275.2,68.6z M274.3,100.3
				c0.7,1,1,2.2,0.9,3.4c-0.5,5.4,0.4,8.4,1.3,9.3c0.2,0.2,0.7,0.7,2.3,0.5c3.9-0.3,7.1-3.6,9.6-7.6c-1.1-0.4-2.1-1.2-2.9-2.2
				c-3-4-0.7-10.2,1.2-15.1l0-0.1l7.4-20.1l-5,0.4l-1.4,4.8c-0.6,2-2.3,3.4-4.4,3.6l-0.5,0c-0.2,0-0.3,0-0.5,0
				c-0.1,2.9-1.1,7.2-3.7,13.8C277,95.1,275.6,98.1,274.3,100.3z M291.4,90.3L291.4,90.3L291.4,90.3z M276.4,74.5L276.4,74.5
				L276.4,74.5z"/>
			<path class="st2" d="M287.4,123.4c-1.3,0-2.6-0.5-3.5-1.4c-1.5-1.5-1.9-3.8-1-5.7c7.2-14.8,17.2-40.5,22.5-55.8
				c0.6-1.9,2.3-3.2,4.3-3.4l16.8-1.5c1-0.1,2.1,0.1,2.9,0.7c2.9-1.7,6-2.8,9.3-3.1c9.1-0.8,15.2,4,16,12.6c0.5,5.9-1.9,12-4.4,17.4
				c0.8-0.1,1.5,0,2.3,0.2c2.4,0.8,3.8,3.4,3.2,5.9c-0.7,3-2.9,10.7-7.8,18c-4.9,7.2-11,11.4-17.6,11.9l0,0
				c-5.9,0.5-9.5-1.6-11.4-3.5c-1.5-1.4-2.5-3.2-3.2-5.3l-2,5.8c-0.8,2.2-2.9,3.5-5.1,3.3c-1.4-0.1-5.7-0.3-8.6,0.1
				c-3.5,0.5-7,1.6-10.4,3.3C288.9,123.2,288.1,123.4,287.4,123.4z M313.7,66.7c-4.4,12.5-11,29.6-17,43.3c0.6-0.1,1.2-0.2,1.8-0.3
				c2.3-0.3,4.9-0.4,6.9-0.4l6.1-17.6c3.3-9,5.9-14.6,8.3-18.1c-0.5-0.3-1-0.8-1.4-1.3c-1-1.5-1.2-3.4-0.4-5l0.5-1L313.7,66.7z
				 M330.2,68.7c2.3,0.8,3.9,2.9,4.1,5.5c0.3,3.3-1.4,7-3.8,12.2c-2.7,5.9-6.1,13.2-5.6,18.8c0.1,1.5,0.5,2.7,1.1,3.2
				c0.8,0.8,2.4,0.8,3.6,0.7l0,0c4-0.3,7.5-3.6,10.4-7.9c-0.7-0.3-1.3-0.8-1.9-1.3c-1.2-1.2-1.9-2.8-2-4.6
				c-0.4-4.4,1.9-9.2,4.2-14.3c2.3-4.9,4.8-10.4,4.5-14.4c-0.2-2.1-0.7-3.8-5.2-3.5C336.1,63.4,332.8,65.4,330.2,68.7z M329.2,77.9
				L329.2,77.9L329.2,77.9z"/>
			<path class="st2" d="M357.8,116.5c-3.7,0-7.1-1.5-9.8-4.4c-2.5-2.7-4.1-6.5-4.5-10.5c-0.8-9.3,2.6-21.7,9-32.3
				c7.1-11.7,16.2-18.9,25-19.7c3.1-0.3,5.7,0.2,7.9,1.5l9.5-27.7c0.9-2.6,3.6-4,6.2-3.2c3.6,1.1,9.5-0.5,13.5-2.4
				c1.8-0.9,4-0.6,5.5,0.8c1.5,1.4,2,3.5,1.3,5.4l-20.1,54.6c0.9-0.2,1.8-0.2,2.8,0.1c2.4,0.8,3.8,3.4,3.2,5.9
				c-0.7,3-2.8,10.7-7.4,17.8c-4.7,7.3-10.5,11.4-16.7,12c-5.6,0.5-9-1.7-10.8-3.6c-0.5-0.5-1-1.1-1.4-1.8c-3.7,4.5-7.8,7-12.3,7.4
				C358.5,116.5,358.2,116.5,357.8,116.5z M379.1,59.5c-0.2,0-0.4,0-0.7,0c-5.4,0.5-12.1,6.2-17.3,14.9c-5.3,8.7-8.3,19-7.6,26.2
				c0.2,1.8,0.8,3.5,1.9,4.6c1.2,1.3,2.3,1.2,2.7,1.2c3.1-0.3,6.6-4.2,9.7-10.6c-1.8-0.9-3.2-2.8-3.5-5.9c-0.5-5.5,3-14.1,4.1-16.6
				c5.4-12.4,9.6-12.8,11.2-12.9c0.4,0,0.7,0,1.1,0c-0.2-0.6-0.4-0.8-0.4-0.8C380.3,59.6,379.9,59.5,379.1,59.5z M378,91
				c0.8,1,1.1,2.3,0.9,3.7c-0.7,5.4,0,8.3,0.9,9.2c0.5,0.5,1.3,0.7,2.7,0.5c3.4-0.3,6.7-3.4,9.4-7.7c-0.9-0.4-1.6-0.9-2.3-1.6
				c-1.5-1.6-2.2-3.8-1.9-6.1c0.2-2.5,1.3-5.5,2.8-9.6l0.6-1.5c0,0,0,0,0,0l17.6-47.7c-1.8,0.3-3.7,0.5-5.6,0.4l-11.4,33.2
				c-0.6,1.9-2.3,3.2-4.3,3.4l-0.9,0.1c-0.1,0-0.1,0-0.2,0c0,2.6-0.8,6-2.6,11.2c0,0.1-0.1,0.2-0.1,0.2l-1.9,4.8
				C380.3,86.7,379.1,89.2,378,91z M392.7,89.5L392.7,89.5L392.7,89.5z M378.9,76.8L378.9,76.8L378.9,76.8z"/>
		</g>
		<g>
			<path class="st3" d="M109.3,66.3c2.6-5.4,6.9-10.8,11.9-12.9c2.2-1,3-1.3,0.2-2.2c-5.8-1.8-11.5-2.5-16-2.1
				c-21,1.8-29.5,15.7-28.5,25.4c0.4,3.5,2,5.5,4,5.3s3.1-1.5,3-3.1c-0.1-0.9-0.7-2.2-2.9-2c1.7-1.8,3.6-2.3,5.1-2.5
				c4.7-0.4,9.1,3.3,9.6,9.2c0.6,6.3-5.7,18.9-20.3,20.2c-10.3,0.9-21.5-6.4-22.6-19C50.9,62.1,69.8,43,100.8,40.3
				c20.8-1.8,44.1,7.1,59.9,5.7c6.2-0.5,8.3-4.2,7.9-6.6c-0.3-1.5-1.2-2.3-2.5-2.2c-0.4,0-0.5,0-0.9,0.2l0.2-0.4
				c2.3-2.1,4.9-3.1,7.3-3.3c5.2-0.5,11.9,3,12.5,9.6c0.9,9.9-7.1,16.5-20.5,17.6c-9.3,0.8-21.3-3.1-32.9-6.7
				c-3.8,1.8-6.6,6.9-8.7,12.3c-3.2,8.1-6,17-8.9,24.6l7.9-0.7l-4,11l-8.6,0.8C99.9,123.9,87,146,63.4,148
				c-14.6,1.3-28.5-7.2-29.8-21.8c-0.8-9.4,6.2-19.4,17-20.3c5.6-0.5,10.8,1.5,12.9,5.5c-1.9,0.2-3.1,1.5-3,3.1c0.3,3,2.9,4.2,6,3.9
				c9.8-0.9,17.5-7.6,24-17l3-8.8l2.6-0.2c4.3-7.8,8.4-16.4,12.6-24.9L109.3,66.3z"/>
			<path class="st3" d="M164.4,97.4c-1.6,4.5-3,7.8-3.1,9.9c-0.3,1.8,0.7,2.9,2.1,2.8c3.1-0.3,5.5-3.9,7.8-8.8l-0.6,2.2
				c-2.7,8.9-8.4,22.8-19,23.7c-7.9,0.7-10.3-5.9-9.6-13.8c-3.5,8.2-8.5,15.2-14.9,15.8c-5.4,0.5-9.3-3.1-9.9-9
				c-0.9-9.8,9-32.9,14.6-45.1l17.3-1.5l-9.5,25.6c-3,7.8-3.1,10.8-0.2,10.2c1.7-0.3,4.4-5.4,6.4-10.6l1.7-4.2l8.1-21.6l18.3-1.6
				L164.4,97.4z"/>
			<path class="st3" d="M202.2,122.8c-7,0.6-9.6-3.4-10.1-8.5c-1-11.4,9.9-26,9.5-31c-0.1-0.7-0.4-1.5-1.6-1.3
				c-3.5,0.3-7.9,10.4-11.4,20.1l-7.4,21.1c0,0-5.6-0.5-9.7,0.2c-4.8,0.7-8.9,2.3-11.9,3.7c7.2-15,17.3-40.6,22.7-56.4l16.8-1.5
				l-4.2,8.9l1.2-0.1c3.5-6.4,8.9-10.7,15.3-11.2c7-0.6,10.1,2.9,10.6,8c0.9,9.8-9.3,22.1-8.7,28.8c0.1,1.2,0.9,2.1,2.1,2
				c3.4-0.3,5.5-3.7,7.9-8.8C221,106.4,213.6,121.8,202.2,122.8z"/>
			<path class="st3" d="M241.6,93.7c-2.8,7.8-3.8,15.1-3.5,18.6c0.5,5.5,3,10.8,8.5,10.4c2-0.2,4.6-1.4,4.1-3.9
				c3.1,0.3,6,3.7,6.4,7.7c0.6,7-4.4,14.3-14.9,15.2c-12.6,1.1-23-9.4-24.1-21.7c-0.7-8.5,2.6-18.2,5.6-26.2L245.3,36
				c5.4,1.7,14.3-0.7,18.7-2.9L241.6,93.7z"/>
			<path class="st3" d="M291.2,87.8c-1.5,4.1-4.4,11.5-0.1,11.1c2.7-0.2,4.9-3,7-7.1l0.8-1.7l-0.5,2.3c-2.7,8.9-8.7,22.7-19.3,23.6
				c-8.2,0.7-9.8-7.3-9.1-15.3c-3.4,8.8-8.7,16.7-15.4,17.3c-5.4,0.5-9.4-3.5-10-10.4c-1.5-17.3,13.9-45.2,29.5-46.6
				c6-0.5,8.1,4.3,8.1,8.6l0.5,0l2.4-8.1l16.3-1.4L291.2,87.8z M276.1,72c-4.8,0.4-14.7,26.6-9.2,26.1c1.9-0.2,4.6-6,6.8-11.4
				C274.8,84.2,279.1,71.8,276.1,72z"/>
			<path class="st3" d="M329.7,111.6c-7,0.6-9.6-3.4-10.1-8.5c-1-11.4,9.9-26,9.5-31c-0.1-0.7-0.4-1.5-1.6-1.3
				c-3.5,0.3-7.9,10.4-11.4,20.1l-7.4,21.1c0,0-5.6-0.5-9.7,0.2c-4.8,0.7-8.9,2.3-11.9,3.7c7.2-15,17.3-40.6,22.7-56.4l16.8-1.5
				l-4.2,8.9l1.2-0.1c3.5-6.4,8.9-10.7,15.3-11.2c7-0.6,10.1,2.9,10.6,8c0.9,9.8-9.3,22.1-8.7,28.8c0.1,1.2,0.9,2.1,2.1,2
				c3.4-0.3,5.5-3.7,7.9-8.8C348.4,95.2,341.1,110.6,329.7,111.6z"/>
			<path class="st3" d="M395.6,77.1c-1.6,4.5-3,7.8-3.1,9.9c-0.2,1.8,0.7,2.9,2.1,2.8c3.1-0.3,5.5-3.9,7.8-8.8
				c-2.3,9.7-9,25-19.7,25.9c-8.7,0.8-10.1-7.1-8.9-15.5c-3.6,8.8-8.8,16.9-15.5,17.5c-5.4,0.5-9.5-4.5-10-10.4
				c-1.5-17.3,13.9-45.2,29.5-46.6c6.3-0.6,7.8,3.5,8,7.7l0.9-0.1l12.7-37.1c5.4,1.7,12.8-0.6,17.2-2.7L395.6,77.1z M378.7,74.3
				c0.9-2.5,4-11.6,1.2-11.3c-4.8,0.4-14.7,26.6-9.2,26.1c1.6-0.1,4.2-5,6.2-10L378.7,74.3z"/>
		</g>
	</g>
</g>
</svg>
